<svg width="110" height="107" viewBox="0 0 110 107" fill="none" xmlns="http://www.w3.org/2000/svg">
<g filter="url(#filter0_d_12_3458)">
<path d="M55.1739 66.8082C60.5921 66.862 65.9718 65.8936 71.0312 63.9539C75.9828 69.4681 84.6276 70.2252 84.6276 70.2252C94.0601 75.2279 93.436 79.5349 94.4386 83.9545C94.576 84.5891 94.8877 85.1727 95.3387 85.6398C95.7897 86.1068 96.362 86.4388 96.9914 86.5982C97.6208 86.7577 98.2822 86.7384 98.9011 86.5424C99.5201 86.3465 100.072 85.9817 100.495 85.4891C101.914 83.7615 102.996 81.7836 103.687 79.6577C109.713 59.9947 99.3288 54.0814 99.3288 54.0814C99.646 31.339 79.3895 30.275 79.3895 30.275V30.3466C72.617 19.5023 55.1535 20.0036 55.1535 20.0036C55.1535 20.0036 37.69 19.5023 30.9072 30.3466V30.275C30.9072 30.275 10.7019 31.2981 10.9986 54.0098C10.9986 54.0098 0.614603 59.964 6.64037 79.5861C7.33759 81.7113 8.42337 83.6887 9.84251 85.4175C10.2641 85.9108 10.8154 86.2764 11.4339 86.4728C12.0524 86.6693 12.7135 86.6888 13.3425 86.5292C13.9716 86.3695 14.5434 86.0371 14.9933 85.5694C15.4433 85.1018 15.7534 84.5176 15.8888 83.8829C16.9118 79.4633 16.2775 75.1563 25.71 70.1536C25.71 70.1536 34.3548 69.3965 39.3064 63.8823C44.3638 65.8491 49.7476 66.8419 55.1739 66.8082Z" fill="#F8E4BE"/>
<path d="M79.3077 48.2503C81.2008 45.0976 82.3745 41.5659 82.7452 37.9073C82.9214 35.4371 82.6157 32.9561 81.8449 30.6027C81.0361 30.4223 80.2156 30.2992 79.3896 30.2344C80.7372 32.6156 81.4719 35.2945 81.5277 38.03C81.5345 41.5571 80.7771 45.0439 79.3077 48.2503Z" fill="#54372B"/>
<path d="M27.6027 37.9072C27.9683 41.567 29.1424 45.0997 31.0402 48.2503C29.5698 45.0401 28.8091 41.5506 28.8099 38.0198C28.8721 35.2851 29.6064 32.6078 30.9481 30.2241C30.122 30.289 29.3015 30.4121 28.4928 30.5924C27.7241 32.9498 27.4218 35.4343 27.6027 37.9072Z" fill="#54372B"/>
<path d="M98.7866 59.6675C99.679 58.3144 100.388 56.8489 100.894 55.3093C100.423 54.8191 99.8975 54.3832 99.3288 54.01C99.3288 53.8668 99.3288 53.7235 99.3288 53.5701C98.8858 57.752 97.0521 61.6643 94.1215 64.6804C95.9425 63.2782 97.5188 61.5844 98.7866 59.6675Z" fill="#54372B"/>
<path d="M16.2264 64.7109C13.2883 61.6977 11.4473 57.7851 10.9986 53.6006C10.9986 53.754 10.9986 53.8973 10.9986 54.0405C10.4339 54.4031 9.91217 54.8287 9.44354 55.3091C9.93036 56.8457 10.6184 58.3112 11.4896 59.6673C12.7801 61.5979 14.3805 63.302 16.2264 64.7109Z" fill="#54372B"/>
<path d="M101.027 60.3323C103.186 63.913 103.544 68.3018 103.073 72.3838C102.603 76.4658 101.221 80.6808 98.2853 83.6374C102.179 76.516 103.162 68.1629 101.027 60.3323Z" fill="#54372B"/>
<path d="M9.31054 60.3323C7.15548 68.1716 8.12743 76.5414 12.0216 83.6783C9.07523 80.7115 7.71458 76.5169 7.23375 72.4247C6.75291 68.3325 7.16213 63.9027 9.31054 60.3323Z" fill="#54372B"/>
<path d="M84.2491 34.2241C86.3167 34.697 88.2676 35.5822 89.985 36.8268C91.7025 38.0714 93.1511 39.6497 94.2443 41.4673C96.3755 45.279 97.1611 49.6972 96.4745 54.0099C95.8402 49.9177 95.165 45.8255 93.0166 42.2039C90.8699 38.7997 87.8397 36.0418 84.2491 34.2241Z" fill="#54372B"/>
<path d="M26.0988 34.2241C22.5074 36.036 19.4766 38.7909 17.3313 42.1937C15.1726 45.8255 14.4974 49.9177 13.8631 54.0099C13.1827 49.6949 13.9755 45.2765 16.1138 41.4673C17.2044 39.6497 18.6511 38.0711 20.3669 36.8264C22.0827 35.5818 24.0324 34.6966 26.0988 34.2241Z" fill="#54372B"/>
<path d="M33.3522 31.8198C34.771 29.3248 36.8208 27.2468 39.2962 25.794C42.3307 24.0763 45.6512 22.9221 49.097 22.3873C56.0026 21.2107 63.6755 21.9269 69.9672 25.17C72.9046 26.6591 75.3462 28.9693 76.9956 31.8198C75.1662 29.6744 72.8942 27.9503 70.3355 26.7659C67.4081 25.4632 64.3063 24.5947 61.1281 24.1878C54.4351 23.2059 47.6028 23.9092 41.2502 26.2339C38.1928 27.408 35.4778 29.3282 33.3522 31.8198Z" fill="#54372B"/>
<path d="M36.5032 34.0706C36.2372 34.1422 36.0326 34.5003 35.7973 35.3494L35.4495 36.618L36.0429 35.8405C36.7795 34.8481 37.0148 33.9376 36.5032 34.0706Z" fill="#54372B"/>
<path d="M70.5708 31.9837C70.4071 32.352 70.4378 32.5054 70.7345 32.8942C71.42 33.7843 71.6553 32.7714 70.9903 31.8711C70.8061 31.6052 70.7141 31.6358 70.5708 31.9837Z" fill="#54372B"/>
<path d="M54.4476 32.2395C54.6728 32.1654 54.9066 32.1207 55.1433 32.1065C55.399 32.1065 55.3479 32.0042 54.908 31.5949C54.4681 31.1857 54.2225 31.1039 54.1202 31.8712C54.0691 32.3213 54.0998 32.3622 54.4476 32.2395Z" fill="#54372B"/>
<path d="M19.2444 44.5877C19.4696 44.5136 19.7034 44.4689 19.9401 44.4547C20.1958 44.4547 20.1447 44.3524 19.6945 43.9432C19.2444 43.534 19.0193 43.4419 18.917 44.2194C18.8659 44.6695 18.8965 44.7105 19.2444 44.5877Z" fill="#54372B"/>
<path d="M16.9425 48.6183C16.9425 48.8229 17.0244 48.9968 17.1369 48.9968C17.2494 48.9968 17.4233 48.8229 17.5052 48.6183C17.587 48.4137 17.5052 48.25 17.3108 48.25C17.2139 48.2526 17.1218 48.2922 17.0532 48.3607C16.9847 48.4293 16.9451 48.5214 16.9425 48.6183Z" fill="#54372B"/>
<path d="M89.5792 50.8078C89.5792 51.0124 89.661 51.1863 89.7735 51.1863C89.8861 51.1863 90.06 51.0124 90.1418 50.8078C90.2237 50.6031 90.1418 50.4395 89.9475 50.4395C89.8506 50.442 89.7584 50.4817 89.6899 50.5502C89.6214 50.6187 89.5817 50.7109 89.5792 50.8078Z" fill="#54372B"/>
<path d="M34.365 41.0479C34.3037 40.6182 34.2218 40.5875 33.8228 40.8433L33.3522 41.1502L33.7614 41.4674C34.273 41.8663 34.4673 41.7333 34.365 41.0479Z" fill="#54372B"/>
<path d="M20.9938 51.6874C20.9324 51.268 20.8506 51.2373 20.4516 51.4828L19.981 51.7897L20.3902 52.1069C20.9017 52.5059 21.0961 52.3729 20.9938 51.6874Z" fill="#54372B"/>
<path d="M67.6654 29.4569C67.7036 29.5445 67.7665 29.619 67.8465 29.6714C67.9264 29.7238 68.0199 29.7517 68.1155 29.7517C68.2111 29.7517 68.3046 29.7238 68.3846 29.6714C68.4645 29.619 68.5275 29.5445 68.5657 29.4569C68.7294 29.2011 68.6987 29.109 68.3611 28.8226C68.1919 28.6682 67.9885 28.556 67.7677 28.4952C67.4915 28.4338 67.4403 29.017 67.6654 29.4569Z" fill="#54372B"/>
<path d="M89.4564 47.3804C89.4946 47.468 89.5575 47.5426 89.6375 47.5949C89.7174 47.6473 89.8109 47.6752 89.9065 47.6752C90.0021 47.6752 90.0956 47.6473 90.1756 47.5949C90.2555 47.5426 90.3185 47.468 90.3567 47.3804C90.5101 47.1349 90.4794 47.0428 90.1418 46.7563C89.9753 46.5982 89.771 46.4854 89.5484 46.429C89.2824 46.4494 89.2211 46.9814 89.4564 47.3804Z" fill="#54372B"/>
<path d="M16.7993 52.6186C17.0346 52.905 17.3108 52.6186 17.229 52.148C17.207 52.0603 17.1573 51.982 17.0872 51.9248C17.0172 51.8677 16.9305 51.8347 16.8402 51.8308C16.5026 51.8308 16.4821 52.2298 16.7993 52.6186Z" fill="#54372B"/>
<path d="M57.5269 26.0297C57.7827 26.265 57.9668 26.3059 58.0282 26.132C58.0896 25.9581 57.7315 25.6409 57.5167 25.733C57.3019 25.8251 57.3428 25.866 57.5269 26.0297Z" fill="#54372B"/>
<path d="M22.6 44.4342C22.8557 44.6695 23.0399 44.7002 23.1013 44.5263C23.1627 44.3524 22.8046 44.0353 22.5795 44.1376C22.3545 44.2399 22.4158 44.2603 22.6 44.4342Z" fill="#54372B"/>
<path d="M50.3247 34.306C50.6725 34.6743 50.7134 34.6641 50.9487 34.1014C51.184 33.5387 51.0919 33.0784 50.6827 33.0784C50.2735 33.0784 49.987 33.9275 50.3247 34.306Z" fill="#54372B"/>
<path d="M68.801 37.2831C68.7397 37.3244 68.6903 37.3811 68.658 37.4476C68.6256 37.5141 68.6115 37.5879 68.6168 37.6616C68.6168 37.7844 68.801 37.856 69.067 37.856C69.333 37.856 69.5069 37.7333 69.2 37.3036C69.0567 37.099 69.026 37.099 68.801 37.2831Z" fill="#54372B"/>
<path d="M53.7212 26.7457C53.7681 26.9788 53.8509 27.2031 53.9668 27.4107C54.2123 27.8506 54.5192 27.7074 54.6727 27.1038C54.8261 26.5002 54.7954 26.4081 54.1918 26.3672C53.7724 26.3876 53.6905 26.3876 53.7212 26.7457Z" fill="#54372B"/>
<path d="M58.6012 33.4773C58.2943 33.4773 58.3147 33.8967 58.6012 34.1014C58.8876 34.306 58.9183 34.2446 58.9593 34.1014C59.0002 33.9581 58.8263 33.4773 58.6012 33.4773Z" fill="#54372B"/>
<path d="M24.7689 37.8867C24.4517 37.8867 24.4722 38.3062 24.7689 38.5108C25.0655 38.7154 25.086 38.654 25.1269 38.5108C25.1678 38.3676 24.9837 37.8867 24.7689 37.8867Z" fill="#54372B"/>
<path d="M15.8683 55.6263C15.3568 55.6263 15.0601 56.1787 15.4386 56.4242C15.8172 56.6698 16.1036 56.5163 16.2162 56.0252C16.2276 55.9749 16.2271 55.9226 16.2145 55.8726C16.2019 55.8225 16.1777 55.7761 16.1438 55.7372C16.1098 55.6983 16.0672 55.668 16.0193 55.6487C15.9715 55.6294 15.9197 55.6217 15.8683 55.6263Z" fill="#54372B"/>
<path d="M92.2289 52.2708C91.7173 52.2708 91.4104 52.8232 91.7992 53.0688C92.1879 53.3143 92.4642 53.1608 92.5767 52.68C92.5901 52.629 92.591 52.5755 92.5793 52.5241C92.5677 52.4727 92.5437 52.4248 92.5096 52.3846C92.4754 52.3445 92.432 52.3131 92.3832 52.2933C92.3343 52.2735 92.2814 52.2657 92.2289 52.2708Z" fill="#54372B"/>
<path d="M18.6919 54.9614C18.6006 54.9655 18.5137 55.0015 18.4463 55.0632C18.379 55.125 18.3355 55.2085 18.3236 55.299C18.3236 55.4832 18.385 55.6264 18.4975 55.6264C18.6101 55.6264 18.7737 55.4832 18.8658 55.299C18.9579 55.1149 18.8761 54.9614 18.6919 54.9614Z" fill="#54372B"/>
<path d="M93.0575 56.1992C92.9674 56.2036 92.8818 56.24 92.8162 56.3019C92.7505 56.3638 92.7091 56.4471 92.6995 56.5368C92.6995 56.7107 92.7608 56.8642 92.8734 56.8642C92.9859 56.8642 93.1496 56.7107 93.2315 56.5368C93.3133 56.3629 93.2417 56.1992 93.0575 56.1992Z" fill="#54372B"/>
<path d="M61.8545 27.4823C61.9363 27.8097 61.9772 27.8097 62.5399 27.4823C63.1026 27.155 63.0412 26.9094 62.4785 26.889C61.9159 26.8685 61.7624 27.0936 61.8545 27.4823Z" fill="#54372B"/>
<path d="M39.5008 30.715C39.4549 30.7673 39.3982 30.8091 39.3346 30.8373C39.2711 30.8656 39.2021 30.8797 39.1325 30.8787C38.7745 30.8787 38.6517 30.981 38.621 31.3186C38.5903 31.6562 38.621 31.6153 38.9484 31.6665L39.4292 31.7688C39.5008 31.7688 39.5827 31.6767 39.6134 31.5437C39.644 31.4107 39.7157 31.2879 39.777 31.2879C39.8384 31.2879 39.8589 31.2265 39.8384 31.1447C39.8331 31.093 39.8406 31.0407 39.8602 30.9925C39.8798 30.9444 39.911 30.9018 39.951 30.8685C39.9867 30.8447 40.0164 30.8129 40.0377 30.7756C40.0591 30.7383 40.0714 30.6965 40.0737 30.6536C40.043 30.4797 39.644 30.5616 39.5008 30.715Z" fill="#54372B"/>
<path d="M61.7419 30.8685C61.4043 30.7866 61.3123 30.9606 61.4964 31.3391C61.5222 31.4055 61.5634 31.4648 61.6166 31.5121C61.6698 31.5595 61.7334 31.5935 61.8023 31.6115C61.8712 31.6295 61.9434 31.6309 62.0129 31.6155C62.0825 31.6002 62.1474 31.5685 62.2023 31.5232C62.3967 31.38 62.1512 30.9606 61.7419 30.8685Z" fill="#54372B"/>
<path d="M46.8872 29.5692C46.7427 29.5733 46.6014 29.5262 46.4882 29.4362C46.4519 29.4072 46.4068 29.3914 46.3604 29.3914C46.3139 29.3914 46.2688 29.4072 46.2325 29.4362C46.1097 29.5283 46.2325 29.9171 46.4882 30.5411C46.5496 30.6639 46.744 30.7253 46.9793 30.6946C47.2146 30.6639 47.3578 30.5821 47.2658 30.1115C47.1737 29.6409 47.1123 29.5692 46.8872 29.5692Z" fill="#54372B"/>
<path d="M93.6918 49.7028C93.5485 49.7098 93.4074 49.6663 93.2928 49.58C93.2565 49.551 93.2114 49.5352 93.1649 49.5352C93.1184 49.5352 93.0733 49.551 93.037 49.58C92.9143 49.6721 93.037 50.0609 93.2928 50.6849C93.3542 50.8077 93.5486 50.8691 93.7839 50.8384C94.0192 50.8077 94.1624 50.7259 94.0703 50.2553C93.9782 49.7847 93.9169 49.7028 93.6918 49.7028Z" fill="#54372B"/>
<path d="M49.8131 27.6665C49.3221 27.6665 49.3118 27.7381 49.7211 28.3622C50.1303 28.9862 50.7441 29.0169 50.6213 28.6179C50.519 28.045 50.1917 27.6665 49.8131 27.6665Z" fill="#54372B"/>
<path d="M47.3476 34.4391C47.3575 34.4891 47.3866 34.5332 47.4287 34.5619C47.4708 34.5906 47.5225 34.6016 47.5727 34.5926L48.1251 34.4596L48.5241 34.3778L48.2581 34.122C47.7568 33.6412 47.1634 33.8458 47.3476 34.4391Z" fill="#54372B"/>
<path d="M25.2087 41.8969C25.2186 41.9469 25.2478 41.991 25.2899 42.0197C25.332 42.0484 25.3837 42.0594 25.4338 42.0504L25.9965 41.9174L26.3852 41.8355L26.1192 41.5798C25.6179 41.0989 25.0246 41.3035 25.2087 41.8969Z" fill="#54372B"/>
<path d="M85.1903 40.4238C85.2002 40.4737 85.2293 40.5178 85.2714 40.5465C85.3135 40.5752 85.3652 40.5862 85.4153 40.5772C85.4972 40.5772 85.7529 40.4954 85.9678 40.4442L86.3668 40.3624L86.1008 40.1066C85.5995 39.6258 85.0061 39.8304 85.1903 40.4238Z" fill="#54372B"/>
<path d="M61.8852 36.3622C62.2125 36.6793 62.3251 36.6589 62.6115 36.2496C62.898 35.8404 62.7752 35.554 62.3046 35.554C61.834 35.554 61.5885 36.0757 61.8852 36.3622Z" fill="#54372B"/>
<path d="M42.5598 32.137C42.0482 32.137 42.0278 32.8633 42.5598 33.6511C43.0917 34.4388 43.3884 34.5514 43.4703 33.9375C43.5521 33.3237 42.9485 32.137 42.5598 32.137Z" fill="#54372B"/>
<path d="M84.9038 43.5442C84.3923 43.5442 84.3718 44.2706 84.9038 45.0583C85.4358 45.8461 85.7325 45.9586 85.8143 45.3448C85.8962 44.7309 85.2926 43.5442 84.9038 43.5442Z" fill="#54372B"/>
<path d="M42.3551 36.8022C42.1979 36.8266 42.0371 36.8015 41.8947 36.7305C41.7311 36.5464 41.5162 36.8328 41.5776 37.1705C41.5951 37.3109 41.6479 37.4446 41.731 37.5592C41.8743 37.6717 42.0073 37.6308 42.2017 37.4262C42.3138 37.3191 42.451 37.2418 42.6006 37.2011C42.6263 37.1974 42.651 37.1886 42.6732 37.1752C42.6954 37.1618 42.7147 37.1441 42.7299 37.1231C42.7452 37.1021 42.7561 37.0783 42.762 37.0531C42.7679 37.0278 42.7687 37.0016 42.7643 36.9761C42.7132 36.8226 42.6518 36.7919 42.3551 36.8022Z" fill="#54372B"/>
<path d="M26.3444 45.5901C26.1872 45.6159 26.0259 45.5908 25.884 45.5185C25.7101 45.3343 25.5054 45.631 25.5566 45.9584C25.5741 46.0989 25.6269 46.2326 25.7101 46.3472C25.8635 46.4597 25.9863 46.4188 26.1909 46.2244C26.296 46.1113 26.4307 46.0298 26.5797 45.9891C26.6067 45.9887 26.6332 45.982 26.6572 45.9696C26.6811 45.9572 26.7019 45.9393 26.7178 45.9175C26.7337 45.8956 26.7442 45.8704 26.7487 45.8438C26.7531 45.8171 26.7513 45.7898 26.7433 45.764C26.6615 45.6106 26.5899 45.5799 26.3444 45.5901Z" fill="#54372B"/>
<path d="M22.0475 40.3419C21.8893 40.3654 21.7277 40.3366 21.5872 40.2601C21.4235 40.0861 21.2086 40.3726 21.27 40.7C21.2807 40.8404 21.3303 40.975 21.4132 41.0887C21.5667 41.2013 21.6997 41.1706 21.8941 40.966C21.9904 40.8524 22.1135 40.7645 22.2521 40.7102C22.2791 40.7065 22.3051 40.6974 22.3286 40.6835C22.352 40.6695 22.3724 40.6511 22.3886 40.6292C22.4048 40.6072 22.4165 40.5823 22.4229 40.5558C22.4293 40.5293 22.4304 40.5018 22.4261 40.4749C22.4158 40.3521 22.3442 40.3215 22.0475 40.3419Z" fill="#54372B"/>
<path d="M75.6145 35.329C75.6145 35.6768 75.6963 35.82 75.8191 35.8712C76.0237 35.9633 76.0646 35.9633 76.2181 35.8712C76.3716 35.7791 76.0851 34.8481 75.86 34.7458C75.635 34.6435 75.5634 34.7663 75.6145 35.329Z" fill="#54372B"/>
<path d="M68.535 34.5719C68.5492 34.5123 68.5415 34.4495 68.5134 34.3951C68.4852 34.3406 68.4384 34.2981 68.3815 34.2752C68.136 34.1525 67.5529 34.6435 67.6552 34.8891C67.7575 35.1346 68.4225 34.7765 68.535 34.5719Z" fill="#54372B"/>
<path d="M79.6555 41.8356C79.7783 41.7026 79.7783 41.6208 79.6555 41.4673C79.5712 41.3728 79.4609 41.3052 79.3384 41.2729C79.144 41.2729 78.8269 41.764 78.878 41.9788C78.9292 42.1937 79.3998 42.1016 79.6555 41.8356Z" fill="#54372B"/>
<path d="M54.2225 35.595C54.0997 35.595 53.9463 35.8507 53.8747 36.1781C53.8031 36.5055 53.8747 36.7101 54.0077 36.618C54.3453 36.3827 54.5192 35.595 54.2225 35.595Z" fill="#54372B"/>
<path d="M87.2773 47.9434C87.1545 47.9434 86.9908 48.2094 86.9192 48.5265C86.8476 48.8436 86.9192 49.0585 87.0624 48.9664C87.4 48.7823 87.5637 47.9434 87.2773 47.9434Z" fill="#54372B"/>
<path d="M24.3903 48.4751C24.2676 48.4751 24.1141 48.7309 24.0425 49.048C23.9709 49.3652 24.0425 49.58 24.1755 49.4879C24.5131 49.3038 24.687 48.4751 24.3903 48.4751Z" fill="#54372B"/>
<path d="M38.8665 38.6642C38.9995 38.6642 39.1018 38.48 39.0916 38.255C39.0813 38.0299 38.9688 37.8662 38.8358 37.8662C38.7028 37.8662 38.6107 38.0401 38.621 38.255C38.6312 38.4698 38.7335 38.6642 38.8665 38.6642Z" fill="#54372B"/>
<path d="M21.0347 47.8717C21.1677 47.8717 21.2598 47.6978 21.2598 47.4727C21.2598 47.2476 21.137 47.0737 21.004 47.0737C20.871 47.0737 20.7789 47.2579 20.7892 47.4727C20.7994 47.6876 20.9017 47.8717 21.0347 47.8717Z" fill="#54372B"/>
<path d="M57.9464 29.0883C58.2738 29.4771 58.6012 29.4668 58.6933 29.0883C58.7853 28.7098 58.2329 28.1983 57.9055 28.362C57.5781 28.5256 57.6497 28.72 57.9464 29.0883Z" fill="#54372B"/>
<path d="M88.5561 42.3474C88.8835 42.7463 89.2109 42.7259 89.3029 42.3474C89.395 41.9688 88.8426 41.4573 88.5152 41.621C88.1878 41.7847 88.2594 41.9791 88.5561 42.3474Z" fill="#54372B"/>
<path d="M76.525 38.8174C76.7706 38.6844 76.6785 38.5207 76.2795 38.4082C76.2456 38.3917 76.2085 38.3826 76.1708 38.3815C76.1331 38.3804 76.0955 38.3873 76.0607 38.4018C76.0259 38.4163 75.9945 38.4381 75.9687 38.4656C75.943 38.4932 75.9233 38.5259 75.9112 38.5617C75.8396 38.6947 75.8498 38.8277 75.9112 38.8584C76.0081 38.9061 76.1158 38.9275 76.2236 38.9203C76.3314 38.9132 76.4354 38.8777 76.525 38.8174Z" fill="#54372B"/>
<path d="M93.2519 46.1017C93.4974 45.9687 93.3951 45.8051 93.0064 45.6925C92.812 45.6414 92.7199 45.6925 92.6278 45.846C92.5357 45.9994 92.5664 46.112 92.6278 46.1427C92.7265 46.1903 92.8359 46.2116 92.9452 46.2045C93.0546 46.1973 93.1603 46.1619 93.2519 46.1017Z" fill="#54372B"/>
<path d="M72.0441 37.15C72.0441 36.8943 71.8906 36.884 71.5735 37.15C71.2563 37.416 71.42 37.9173 71.9008 37.9173C71.9929 37.9173 72.085 37.9173 72.0952 37.9992C72.0952 38.1219 72.4124 38.1219 72.4737 37.9992C72.5351 37.8764 72.4226 37.7946 72.2998 37.6513C72.1759 37.5069 72.0883 37.3351 72.0441 37.15Z" fill="#54372B"/>
<path d="M78.6734 37.2215C78.8166 37.4875 79.0417 37.467 79.1645 37.1601C79.2872 36.8532 78.9189 36.4951 78.6325 36.4951C78.346 36.4951 78.5199 36.935 78.6734 37.2215Z" fill="#54372B"/>
<path d="M32.2474 36.8841C32.3935 36.7348 32.4838 36.5397 32.5031 36.3317C32.5031 36.0964 32.5031 36.0862 32.2576 36.3317C32.1145 36.4843 32.0217 36.6771 31.9916 36.8841C31.9814 37.0785 32.0325 37.0888 32.2474 36.8841Z" fill="#54372B"/>
<path d="M43.7362 26.3877C44.6877 31.237 45.547 36.0965 46.3859 40.9662C47.3476 46.5725 48.1558 52.2914 55.2353 52.2914C62.3149 52.2914 63.1435 46.6134 64.0745 41.0378C64.8827 36.1578 65.7216 31.2983 66.6424 26.4388C66.1513 31.3597 65.6193 36.2601 64.9748 41.1708C64.2075 47.3091 62.9287 53.5906 55.2353 53.5804C47.542 53.5702 46.2836 47.3296 45.4857 41.1503C44.8411 36.1783 44.2375 31.2779 43.7362 26.3877Z" fill="#54372B"/>
</g>
<defs>
<filter id="filter0_d_12_3458" x="-2.5" y="0" width="115" height="115" filterUnits="userSpaceOnUse" color-interpolation-filters="sRGB">
<feFlood flood-opacity="0" result="BackgroundImageFix"/>
<feColorMatrix in="SourceAlpha" type="matrix" values="0 0 0 0 0 0 0 0 0 0 0 0 0 0 0 0 0 0 127 0" result="hardAlpha"/>
<feOffset dy="4"/>
<feGaussianBlur stdDeviation="2"/>
<feComposite in2="hardAlpha" operator="out"/>
<feColorMatrix type="matrix" values="0 0 0 0 0 0 0 0 0 0 0 0 0 0 0 0 0 0 0.25 0"/>
<feBlend mode="normal" in2="BackgroundImageFix" result="effect1_dropShadow_12_3458"/>
<feBlend mode="normal" in="SourceGraphic" in2="effect1_dropShadow_12_3458" result="shape"/>
</filter>
</defs>
</svg>
