<svg width="306" height="112" viewBox="0 0 306 112" fill="none" xmlns="http://www.w3.org/2000/svg">
<g clip-path="url(#clip0_12_3295)" filter="url(#filter0_d_12_3295)">
<path d="M41.7422 57.2558C55.0361 57.2558 65.813 46.479 65.813 33.185C65.813 19.8911 55.0361 9.11426 41.7422 9.11426C28.4483 9.11426 17.6714 19.8911 17.6714 33.185C17.6714 46.479 28.4483 57.2558 41.7422 57.2558Z" stroke="#4E3D33" stroke-width="6.36176" stroke-miterlimit="10"/>
<path opacity="0.8" d="M41.7513 45.4893C38.488 45.4893 35.3584 44.1929 33.0509 41.8854C30.7434 39.5779 29.4471 36.4483 29.4471 33.185C29.4471 29.9217 30.7434 26.7921 33.0509 24.4846C35.3584 22.1771 38.488 20.8807 41.7513 20.8807" stroke="white" stroke-width="6.36176" stroke-miterlimit="10" stroke-linecap="round"/>
<path d="M67.3442 33.1849H80.5508" stroke="#4E3D33" stroke-width="7.1547" stroke-miterlimit="10" stroke-linecap="round"/>
<path d="M36.7746 83.8389C36.7746 84.5918 37.7316 85.5743 39.3521 85.5743C40.9981 85.5743 42.491 84.579 42.491 82.6905C42.491 81.4018 41.6872 79.7812 39.62 79.7812C39.0841 79.7812 38.5993 79.8706 38.1016 80.062V76.7571H42.0062V76.4381H37.1191V80.8531H37.4509C37.8975 80.4958 38.4334 80.2534 39.2117 80.2534C40.7174 80.2534 41.3554 81.2359 41.5085 82.6012C41.5468 82.9968 41.483 83.4051 41.3171 83.8389C40.9598 84.7704 40.3346 85.2553 39.3266 85.2553C38.5099 85.2553 37.8847 84.6938 37.8209 84.209C37.923 84.0686 37.9613 83.9793 37.9613 83.8134C37.9613 83.6475 37.8592 83.2264 37.3743 83.2264C37.0043 83.2264 36.7746 83.4944 36.7746 83.8389ZM47.0326 85.5743C49.4059 85.5743 50.2864 82.9968 50.2864 80.8786C50.2864 78.7477 49.5718 76.234 47.0836 76.234C44.7103 76.234 43.7788 78.7987 43.7788 80.9424C43.7788 83.0861 44.4296 85.5743 47.0326 85.5743ZM45.5269 77.9821C45.8332 77.2165 46.3691 76.553 47.0964 76.553C48.6148 76.553 48.9721 79.1943 48.9721 81.1466C48.9721 82.078 48.87 83.0478 48.5893 83.8134C48.3086 84.579 47.7344 85.2553 47.0071 85.2553C45.259 85.2553 45.0931 81.8356 45.0931 80.6744C45.0931 79.7174 45.2207 78.7477 45.5269 77.9821ZM56.9738 83.2137C56.9738 84.6045 57.9308 85.5743 59.3344 85.5743C60.8273 85.5743 61.644 84.2728 61.644 83.0988C61.644 81.8739 60.8528 80.7127 59.3344 80.7127C58.0329 80.7127 56.9738 81.8994 56.9738 83.2137ZM53.7583 81.0955C55.0471 81.0955 56.1061 79.8833 56.1061 78.5818C56.1061 77.1782 55.1619 76.234 53.7583 76.234C52.2781 76.2595 51.4487 77.5227 51.4487 78.7094C51.4487 79.9216 52.2526 81.0955 53.7583 81.0955ZM58.0839 83.0095C58.0839 82.2694 58.4284 81.0317 59.3216 81.0317C60.3042 81.0317 60.5466 82.5629 60.5466 83.303C60.5466 83.9793 60.2148 85.2553 59.3599 85.2553C58.4412 85.2553 58.0839 83.7241 58.0839 83.0095ZM52.2016 85.587H53.0948L60.7508 76.234H59.7555L52.2016 85.587ZM53.7711 76.553C54.7281 76.553 55.0088 78.0587 55.0088 78.786C55.0088 79.5388 54.7281 80.7765 53.7838 80.7765C52.8268 80.7765 52.5461 79.2198 52.5461 78.4925C52.5461 77.8162 52.9417 76.553 53.7711 76.553Z" fill="#F8E4BE"/>
<path d="M38.1016 80.062H37.418V81.0573L38.347 80.7L38.1016 80.062ZM38.1016 76.7571V76.0736H37.418V76.7571H38.1016ZM42.0062 76.7571V77.4407H42.6897V76.7571H42.0062ZM42.0062 76.4381H42.6897V75.7546H42.0062V76.4381ZM37.1191 76.4381V75.7546H36.4355V76.4381H37.1191ZM37.1191 80.8531H36.4355V81.5367H37.1191V80.8531ZM37.4509 80.8531V81.5367H37.6906L37.8779 81.3869L37.4509 80.8531ZM41.5085 82.6012L42.189 82.5354L42.1878 82.525L41.5085 82.6012ZM41.3171 83.8389L41.9554 84.0837L41.9556 84.083L41.3171 83.8389ZM37.8209 84.209L37.2681 83.8069L37.1076 84.0276L37.1432 84.2981L37.8209 84.209ZM36.091 83.8389C36.091 84.4925 36.4881 85.1072 37.039 85.5308C37.609 85.9691 38.4025 86.2578 39.3521 86.2578V84.8907C38.6811 84.8907 38.1859 84.6882 37.8723 84.447C37.5396 84.1912 37.4581 83.9382 37.4581 83.8389H36.091ZM39.3521 86.2578C40.3061 86.2578 41.2548 85.97 41.9777 85.3646C42.7151 84.7471 43.1746 83.8327 43.1746 82.6905H41.8075C41.8075 83.4368 41.5205 83.9643 41.0999 84.3165C40.6649 84.6809 40.0441 84.8907 39.3521 84.8907V86.2578ZM43.1746 82.6905C43.1746 81.9177 42.9362 81.0303 42.3616 80.3219C41.7691 79.5917 40.8543 79.0977 39.62 79.0977V80.4648C40.4529 80.4648 40.9736 80.7811 41.2999 81.1833C41.6439 81.6074 41.8075 82.1746 41.8075 82.6905H43.1746ZM39.62 79.0977C39.0011 79.0977 38.433 79.2021 37.8562 79.424L38.347 80.7C38.7655 80.539 39.1672 80.4648 39.62 80.4648V79.0977ZM38.7852 80.062V76.7571H37.418V80.062H38.7852ZM38.1016 77.4407H42.0062V76.0736H38.1016V77.4407ZM42.6897 76.7571V76.4381H41.3226V76.7571H42.6897ZM42.0062 75.7546H37.1191V77.1217H42.0062V75.7546ZM36.4355 76.4381V80.8531H37.8027V76.4381H36.4355ZM37.1191 81.5367H37.4509V80.1695H37.1191V81.5367ZM37.8779 81.3869C38.2141 81.1179 38.6019 80.9369 39.2117 80.9369V79.5698C38.2648 79.5698 37.5808 79.8737 37.0238 80.3193L37.8779 81.3869ZM39.2117 80.9369C39.801 80.9369 40.1376 81.1211 40.3545 81.3672C40.5926 81.6375 40.7609 82.0679 40.8292 82.6774L42.1878 82.525C42.1031 81.7692 41.8758 81.0257 41.3802 80.4634C40.8634 79.8769 40.1281 79.5698 39.2117 79.5698V80.9369ZM40.8281 82.667C40.8546 82.9401 40.8136 83.2419 40.6786 83.5948L41.9556 84.083C42.1525 83.5682 42.2391 83.0535 42.1889 82.5354L40.8281 82.667ZM40.6789 83.5941C40.5333 83.9737 40.3558 84.2041 40.164 84.3435C39.9765 84.4797 39.717 84.5717 39.3266 84.5717V85.9388C39.9442 85.9388 40.5013 85.7884 40.9678 85.4493C41.4299 85.1134 41.7437 84.6356 41.9554 84.0837L40.6789 83.5941ZM39.3266 84.5717C39.0755 84.5717 38.858 84.4851 38.7031 84.3683C38.6259 84.31 38.5713 84.2495 38.5374 84.1985C38.5024 84.1458 38.4983 84.1173 38.4986 84.1198L37.1432 84.2981C37.2061 84.7761 37.5171 85.186 37.8797 85.4596C38.2576 85.7447 38.761 85.9388 39.3266 85.9388V84.5717ZM38.3737 84.611C38.4384 84.5221 38.5163 84.405 38.5708 84.2571C38.6283 84.1008 38.6448 83.9525 38.6448 83.8134H37.2777C37.2777 83.8289 37.2768 83.83 37.278 83.8221C37.2786 83.818 37.2797 83.8122 37.2815 83.8052C37.2833 83.7982 37.2855 83.7911 37.2879 83.7844C37.293 83.7706 37.2973 83.7637 37.2957 83.7664C37.2948 83.768 37.2923 83.772 37.2877 83.7789C37.2831 83.7858 37.2768 83.7949 37.2681 83.8069L38.3737 84.611ZM38.6448 83.8134C38.6448 83.6263 38.5947 83.3364 38.4139 83.072C38.2065 82.7685 37.853 82.5429 37.3743 82.5429V83.91C37.3933 83.91 37.377 83.9132 37.3453 83.896C37.3148 83.8796 37.295 83.8577 37.2853 83.8435C37.2773 83.8318 37.277 83.827 37.2783 83.8317C37.28 83.838 37.2777 83.8349 37.2777 83.8134H38.6448ZM37.3743 82.5429C37.0156 82.5429 36.6807 82.6773 36.4381 82.9348C36.2004 83.1871 36.091 83.5149 36.091 83.8389H37.4581C37.4581 83.8184 37.4636 83.84 37.4332 83.8722C37.4188 83.8875 37.4018 83.8987 37.3863 83.9051C37.371 83.9115 37.3651 83.91 37.3743 83.91V82.5429ZM45.5269 77.9821L44.8922 77.7282L45.5269 77.9821ZM48.5893 83.8134L49.2311 84.0487L48.5893 83.8134ZM47.0326 86.2578C48.5217 86.2578 49.5363 85.4273 50.1438 84.3585C50.7364 83.316 50.97 82.0153 50.97 80.8786H49.6028C49.6028 81.8601 49.3962 82.9072 48.9552 83.683C48.5292 84.4325 47.9169 84.8907 47.0326 84.8907V86.2578ZM50.97 80.8786C50.97 79.7559 50.7847 78.465 50.2177 77.429C49.628 76.3515 48.6164 75.5504 47.0836 75.5504V76.9175C48.039 76.9175 48.6288 77.3733 49.0184 78.0854C49.4308 78.839 49.6028 79.8704 49.6028 80.8786H50.97ZM47.0836 75.5504C45.5986 75.5504 44.572 76.3733 43.9505 77.4403C43.3434 78.4827 43.0952 79.7881 43.0952 80.9424H44.4624C44.4624 79.953 44.68 78.9042 45.1319 78.1284C45.5695 77.377 46.1953 76.9175 47.0836 76.9175V75.5504ZM43.0952 80.9424C43.0952 82.0628 43.2619 83.3547 43.8302 84.3909C44.4259 85.4773 45.4568 86.2578 47.0326 86.2578V84.8907C46.0053 84.8907 45.4093 84.4272 45.0289 83.7335C44.621 82.9898 44.4624 81.9657 44.4624 80.9424H43.0952ZM46.1616 78.236C46.2921 77.9098 46.4582 77.6416 46.6356 77.4653C46.8073 77.2946 46.9591 77.2365 47.0964 77.2365V75.8694C46.5064 75.8694 46.0265 76.1431 45.6719 76.4956C45.3229 76.8424 45.068 77.2888 44.8922 77.7282L46.1616 78.236ZM47.0964 77.2365C47.2484 77.2365 47.3786 77.292 47.519 77.4501C47.6753 77.6261 47.8254 77.9141 47.9505 78.3193C48.1999 79.1274 48.2885 80.1964 48.2885 81.1466H49.6557C49.6557 80.1445 49.5656 78.9166 49.2568 77.9161C49.1028 77.4169 48.8789 76.9225 48.5412 76.5423C48.1875 76.1441 47.7036 75.8694 47.0964 75.8694V77.2365ZM48.2885 81.1466C48.2885 82.0426 48.1885 82.9208 47.9475 83.5781L49.2311 84.0487C49.5515 83.1748 49.6557 82.1135 49.6557 81.1466H48.2885ZM47.9475 83.5781C47.834 83.8877 47.6689 84.1548 47.4867 84.3338C47.3071 84.5102 47.1447 84.5717 47.0071 84.5717V85.9388C47.5968 85.9388 48.0852 85.6622 48.4447 85.3091C48.8015 84.9586 49.0639 84.5047 49.2311 84.0487L47.9475 83.5781ZM47.0071 84.5717C46.8316 84.5717 46.6774 84.4999 46.5117 84.2852C46.3312 84.0512 46.1758 83.6887 46.0561 83.2283C45.8183 82.3137 45.7766 81.2381 45.7766 80.6744H44.4095C44.4095 81.272 44.4508 82.4868 44.733 83.5723C44.8732 84.1119 45.0871 84.6769 45.4293 85.1204C45.7864 85.5832 46.3085 85.9388 47.0071 85.9388V84.5717ZM45.7766 80.6744C45.7766 79.7655 45.8995 78.8912 46.1616 78.236L44.8922 77.7282C44.5419 78.6042 44.4095 79.6694 44.4095 80.6744H45.7766ZM53.7583 76.234V75.5503L53.7465 75.5505L53.7583 76.234ZM52.2016 85.587L51.6698 85.1575L50.7708 86.2706H52.2016V85.587ZM53.0948 85.587V86.2706H53.4186L53.6237 86.02L53.0948 85.587ZM60.7508 76.234L61.2797 76.667L62.1937 75.5504H60.7508V76.234ZM59.7555 76.234V75.5504H59.4289L59.2237 75.8045L59.7555 76.234ZM56.2902 83.2137C56.2902 84.0696 56.5875 84.8398 57.1435 85.398C57.6999 85.9565 58.4708 86.2578 59.3344 86.2578V84.8907C58.7944 84.8907 58.385 84.7072 58.112 84.4331C57.8386 84.1587 57.6574 83.7486 57.6574 83.2137H56.2902ZM59.3344 86.2578C61.3201 86.2578 62.3275 84.5236 62.3275 83.0988H60.9604C60.9604 84.0219 60.3345 84.8907 59.3344 84.8907V86.2578ZM62.3275 83.0988C62.3275 82.3451 62.0847 81.5816 61.5733 80.9966C61.0509 80.3989 60.2832 80.0292 59.3344 80.0292V81.3963C59.9041 81.3963 60.2911 81.6071 60.5439 81.8963C60.8077 82.1981 60.9604 82.6276 60.9604 83.0988H62.3275ZM59.3344 80.0292C57.6077 80.0292 56.2902 81.5714 56.2902 83.2137H57.6574C57.6574 82.2275 58.4581 81.3963 59.3344 81.3963V80.0292ZM53.7583 81.7791C55.4809 81.7791 56.7897 80.202 56.7897 78.5818H55.4226C55.4226 79.5647 54.6132 80.412 53.7583 80.412V81.7791ZM56.7897 78.5818C56.7897 77.7231 56.4979 76.9542 55.9419 76.3982C55.3859 75.8422 54.617 75.5504 53.7583 75.5504V76.9175C54.3032 76.9175 54.7082 77.0979 54.9752 77.3649C55.2422 77.6319 55.4226 78.0369 55.4226 78.5818H56.7897ZM53.7465 75.5505C51.7974 75.5841 50.7652 77.2538 50.7652 78.7094H52.1323C52.1323 77.7916 52.7588 76.9349 53.7701 76.9174L53.7465 75.5505ZM50.7652 78.7094C50.7652 79.4607 51.0135 80.2229 51.5243 80.807C52.0458 81.4034 52.8121 81.7791 53.7583 81.7791V80.412C53.1988 80.412 52.8103 80.2007 52.5534 79.907C52.2859 79.6011 52.1323 79.1704 52.1323 78.7094H50.7652ZM58.7675 83.0095C58.7675 82.7231 58.8381 82.3357 58.9812 82.0449C59.1278 81.7469 59.2541 81.7153 59.3216 81.7153V80.3482C58.496 80.3482 58.0034 80.9354 57.7545 81.4413C57.502 81.9544 57.4004 82.5559 57.4004 83.0095H58.7675ZM59.3216 81.7153C59.37 81.7153 59.5095 81.7334 59.6648 82.1359C59.8083 82.5078 59.863 82.9854 59.863 83.303H61.2302C61.2302 82.8805 61.1637 82.2225 60.9403 81.6437C60.7288 81.0957 60.2558 80.3482 59.3216 80.3482V81.7153ZM59.863 83.303C59.863 83.5557 59.7963 83.942 59.6553 84.2418C59.5043 84.5629 59.3845 84.5717 59.3599 84.5717V85.9388C60.1903 85.9388 60.6638 85.3097 60.8924 84.8237C61.131 84.3164 61.2302 83.7266 61.2302 83.303H59.863ZM59.3599 84.5717C59.3408 84.5717 59.1883 84.5534 59.0048 84.129C58.8415 83.7513 58.7675 83.2835 58.7675 83.0095H57.4004C57.4004 83.4502 57.505 84.1052 57.75 84.6717C57.9748 85.1915 58.4603 85.9388 59.3599 85.9388V84.5717ZM52.2016 86.2706H53.0948V84.9035H52.2016V86.2706ZM53.6237 86.02L61.2797 76.667L60.2218 75.801L52.5658 85.1541L53.6237 86.02ZM60.7508 75.5504H59.7555V76.9175H60.7508V75.5504ZM59.2237 75.8045L51.6698 85.1575L52.7334 86.0165L60.2873 76.6635L59.2237 75.8045ZM53.7711 77.2365C53.8121 77.2365 53.9535 77.2551 54.1155 77.654C54.2639 78.0195 54.3252 78.4858 54.3252 78.786H55.6923C55.6923 78.3588 55.6133 77.7086 55.3821 77.1395C55.1645 76.6036 54.687 75.8694 53.7711 75.8694V77.2365ZM54.3252 78.786C54.3252 79.098 54.2641 79.489 54.1309 79.7746C54.0007 80.0537 53.8823 80.093 53.7838 80.093V81.4601C54.6295 81.4601 55.1236 80.8805 55.3699 80.3525C55.6131 79.8311 55.6923 79.2268 55.6923 78.786H54.3252ZM53.7838 80.093C53.7545 80.093 53.6091 80.0791 53.4418 79.6559C53.2911 79.2749 53.2297 78.7932 53.2297 78.4925H51.8625C51.8625 78.9191 51.9414 79.5795 52.1704 80.1586C52.3827 80.6956 52.8561 81.4601 53.7838 81.4601V80.093ZM53.2297 78.4925C53.2297 78.2578 53.305 77.8791 53.4575 77.5777C53.6229 77.2508 53.752 77.2365 53.7711 77.2365V75.8694C52.9607 75.8694 52.4773 76.4867 52.2376 76.9605C51.985 77.4599 51.8625 78.0509 51.8625 78.4925H53.2297Z" fill="#F8E4BE"/>
<path d="M145.636 57.2558C158.929 57.2558 169.706 46.479 169.706 33.185C169.706 19.8911 158.929 9.11426 145.636 9.11426C132.342 9.11426 121.565 19.8911 121.565 33.185C121.565 46.479 132.342 57.2558 145.636 57.2558Z" stroke="#4E3D33" stroke-width="6.36176" stroke-miterlimit="10"/>
<path opacity="0.8" d="M157.94 33.185C157.94 35.6185 157.218 37.9974 155.866 40.0209C154.514 42.0443 152.593 43.6213 150.344 44.5526C148.096 45.4839 145.622 45.7276 143.235 45.2528C140.848 44.7781 138.656 43.6062 136.935 41.8854C135.214 40.1646 134.043 37.9722 133.568 35.5854C133.093 33.1986 133.337 30.7247 134.268 28.4764C135.199 26.228 136.776 24.3064 138.8 22.9544C140.823 21.6024 143.202 20.8807 145.636 20.8807" stroke="white" stroke-width="6.36176" stroke-miterlimit="10" stroke-linecap="round"/>
<path d="M171.229 33.1849H184.444" stroke="#4E3D33" stroke-width="7.1547" stroke-miterlimit="10" stroke-linecap="round"/>
<path d="M141.681 78.6711C141.732 77.2803 142.459 76.9485 143.442 76.9485H145.917L143.85 82.5757C143.467 83.6858 143.238 84.3238 143.123 84.4897C142.906 84.8087 142.829 84.898 142.179 85.0511V85.3701H145.05V84.528C144.603 84.7194 144.105 84.847 143.531 84.9363C143.748 84.7449 143.85 84.5918 144.118 83.8389L146.632 76.9485V76.4381H141.285V78.6711H141.681ZM147.55 83.8389C147.55 84.5918 148.507 85.5743 150.127 85.5743C151.773 85.5743 153.266 84.579 153.266 82.6905C153.266 81.4018 152.462 79.7812 150.395 79.7812C149.859 79.7812 149.374 79.8706 148.877 80.062V76.7571H152.781V76.4381H147.894V80.8531H148.226C148.673 80.4958 149.209 80.2534 149.987 80.2534C151.493 80.2534 152.131 81.2359 152.284 82.6012C152.322 82.9968 152.258 83.4051 152.092 83.8389C151.735 84.7704 151.11 85.2553 150.102 85.2553C149.285 85.2553 148.66 84.6938 148.596 84.209C148.698 84.0686 148.736 83.9793 148.736 83.8134C148.736 83.6475 148.634 83.2264 148.149 83.2264C147.779 83.2264 147.55 83.4944 147.55 83.8389ZM159.824 83.2137C159.824 84.6045 160.781 85.5743 162.184 85.5743C163.677 85.5743 164.494 84.2728 164.494 83.0988C164.494 81.8739 163.703 80.7127 162.184 80.7127C160.883 80.7127 159.824 81.8994 159.824 83.2137ZM156.608 81.0955C157.897 81.0955 158.956 79.8833 158.956 78.5818C158.956 77.1782 158.012 76.234 156.608 76.234C155.128 76.2595 154.299 77.5227 154.299 78.7094C154.299 79.9216 155.103 81.0955 156.608 81.0955ZM160.934 83.0095C160.934 82.2694 161.278 81.0317 162.172 81.0317C163.154 81.0317 163.397 82.5629 163.397 83.303C163.397 83.9793 163.065 85.2553 162.21 85.2553C161.291 85.2553 160.934 83.7241 160.934 83.0095ZM155.052 85.587H155.945L163.601 76.234H162.606L155.052 85.587ZM156.621 76.553C157.578 76.553 157.859 78.0587 157.859 78.786C157.859 79.5388 157.578 80.7765 156.634 80.7765C155.677 80.7765 155.396 79.2198 155.396 78.4925C155.396 77.8162 155.792 76.553 156.621 76.553Z" fill="#F8E4BE"/>
<path d="M141.681 78.6711V79.3547H142.34L142.364 78.6962L141.681 78.6711ZM145.917 76.9485L146.559 77.1842L146.897 76.265H145.917V76.9485ZM143.85 82.5757L143.208 82.3399L143.204 82.3528L143.85 82.5757ZM143.123 84.4897L142.561 84.1006L142.558 84.1053L143.123 84.4897ZM142.179 85.0511L142.022 84.3857L141.495 84.5097V85.0511H142.179ZM142.179 85.3701H141.495V86.0537H142.179V85.3701ZM145.05 85.3701V86.0537H145.733V85.3701H145.05ZM145.05 84.528H145.733V83.4913L144.78 83.8997L145.05 84.528ZM143.531 84.9363L143.079 84.4237L141.325 85.9712L143.636 85.6117L143.531 84.9363ZM144.118 83.8389L143.476 83.6046L143.474 83.6097L144.118 83.8389ZM146.632 76.9485L147.274 77.1828L147.315 77.0693V76.9485H146.632ZM146.632 76.4381H147.315V75.7546H146.632V76.4381ZM141.285 76.4381V75.7546H140.602V76.4381H141.285ZM141.285 78.6711H140.602V79.3547H141.285V78.6711ZM142.364 78.6962C142.386 78.1113 142.542 77.9027 142.647 77.8154C142.774 77.7106 143.005 77.6321 143.442 77.6321V76.265C142.896 76.265 142.272 76.3523 141.777 76.7611C141.261 77.1875 141.027 77.8401 140.998 78.6461L142.364 78.6962ZM143.442 77.6321H145.917V76.265H143.442V77.6321ZM145.276 76.7128L143.208 82.34L144.492 82.8114L146.559 77.1842L145.276 76.7128ZM143.204 82.3528C143.012 82.9085 142.862 83.3374 142.746 83.6468C142.688 83.8016 142.641 83.9193 142.604 84.0043C142.562 84.1019 142.548 84.1188 142.561 84.1006L143.685 84.8788C143.755 84.7776 143.813 84.6526 143.858 84.5492C143.908 84.4332 143.965 84.2909 144.026 84.1268C144.149 83.7981 144.305 83.353 144.496 82.7985L143.204 82.3528ZM142.558 84.1053C142.501 84.1883 142.476 84.2226 142.457 84.2447C142.453 84.2489 142.451 84.2516 142.449 84.2532C142.448 84.2548 142.447 84.2555 142.447 84.2556C142.447 84.2556 142.447 84.2555 142.447 84.2554C142.447 84.2553 142.447 84.2555 142.446 84.2562C142.426 84.2687 142.348 84.3089 142.022 84.3857L142.335 85.7165C142.659 85.6402 142.945 85.5592 143.181 85.409C143.442 85.2427 143.585 85.0262 143.688 84.8741L142.558 84.1053ZM141.495 85.0511V85.3701H142.862V85.0511H141.495ZM142.179 86.0537H145.05V84.6865H142.179V86.0537ZM145.733 85.3701V84.528H144.366V85.3701H145.733ZM144.78 83.8997C144.402 84.0619 143.963 84.1773 143.426 84.2608L143.636 85.6117C144.248 85.5166 144.804 85.3768 145.319 85.1563L144.78 83.8997ZM143.983 85.4488C144.136 85.3139 144.272 85.1683 144.404 84.928C144.52 84.7185 144.628 84.4453 144.762 84.0681L143.474 83.6097C143.34 83.9854 143.264 84.1652 143.207 84.2682C143.167 84.3406 143.143 84.3673 143.079 84.4237L143.983 85.4488ZM144.76 84.0732L147.274 77.1828L145.99 76.7143L143.476 83.6046L144.76 84.0732ZM147.315 76.9485V76.4381H145.948V76.9485H147.315ZM146.632 75.7546H141.285V77.1217H146.632V75.7546ZM140.602 76.4381V78.6711H141.969V76.4381H140.602ZM141.285 79.3547H141.681V77.9876H141.285V79.3547ZM148.877 80.062H148.193V81.0573L149.122 80.7L148.877 80.062ZM148.877 76.7571V76.0736H148.193V76.7571H148.877ZM152.781 76.7571V77.4407H153.465V76.7571H152.781ZM152.781 76.4381H153.465V75.7546H152.781V76.4381ZM147.894 76.4381V75.7546H147.211V76.4381H147.894ZM147.894 80.8531H147.211V81.5367H147.894V80.8531ZM148.226 80.8531V81.5367H148.466L148.653 81.3869L148.226 80.8531ZM152.284 82.6012L152.964 82.5354L152.963 82.525L152.284 82.6012ZM152.092 83.8389L152.731 84.0837L152.731 84.083L152.092 83.8389ZM148.596 84.209L148.043 83.8069L147.883 84.0276L147.918 84.2981L148.596 84.209ZM146.866 83.8389C146.866 84.4925 147.263 85.1072 147.814 85.5308C148.384 85.9691 149.178 86.2578 150.127 86.2578V84.8907C149.456 84.8907 148.961 84.6882 148.647 84.447C148.315 84.1912 148.233 83.9382 148.233 83.8389H146.866ZM150.127 86.2578C151.081 86.2578 152.03 85.97 152.753 85.3646C153.49 84.7471 153.95 83.8327 153.95 82.6905H152.583C152.583 83.4368 152.296 83.9643 151.875 84.3165C151.44 84.6809 150.819 84.8907 150.127 84.8907V86.2578ZM153.95 82.6905C153.95 81.9177 153.711 81.0303 153.137 80.3219C152.544 79.5917 151.629 79.0977 150.395 79.0977V80.4648C151.228 80.4648 151.749 80.7811 152.075 81.1833C152.419 81.6074 152.583 82.1746 152.583 82.6905H153.95ZM150.395 79.0977C149.776 79.0977 149.208 79.2021 148.631 79.424L149.122 80.7C149.541 80.539 149.942 80.4648 150.395 80.4648V79.0977ZM149.56 80.062V76.7571H148.193V80.062H149.56ZM148.877 77.4407H152.781V76.0736H148.877V77.4407ZM153.465 76.7571V76.4381H152.098V76.7571H153.465ZM152.781 75.7546H147.894V77.1217H152.781V75.7546ZM147.211 76.4381V80.8531H148.578V76.4381H147.211ZM147.894 81.5367H148.226V80.1695H147.894V81.5367ZM148.653 81.3869C148.989 81.1179 149.377 80.9369 149.987 80.9369V79.5698C149.04 79.5698 148.356 79.8737 147.799 80.3193L148.653 81.3869ZM149.987 80.9369C150.576 80.9369 150.913 81.1211 151.13 81.3672C151.368 81.6375 151.536 82.0679 151.604 82.6774L152.963 82.525C152.878 81.7692 152.651 81.0257 152.155 80.4634C151.639 79.8769 150.903 79.5698 149.987 79.5698V80.9369ZM151.603 82.667C151.63 82.9401 151.589 83.2419 151.454 83.5948L152.731 84.083C152.928 83.5682 153.014 83.0535 152.964 82.5354L151.603 82.667ZM151.454 83.5941C151.308 83.9737 151.131 84.2041 150.939 84.3435C150.752 84.4797 150.492 84.5717 150.102 84.5717V85.9388C150.719 85.9388 151.276 85.7884 151.743 85.4493C152.205 85.1134 152.519 84.6356 152.731 84.0837L151.454 83.5941ZM150.102 84.5717C149.851 84.5717 149.633 84.4851 149.478 84.3683C149.401 84.31 149.347 84.2495 149.313 84.1985C149.278 84.1458 149.273 84.1173 149.274 84.1198L147.918 84.2981C147.981 84.7761 148.292 85.186 148.655 85.4596C149.033 85.7447 149.536 85.9388 150.102 85.9388V84.5717ZM149.149 84.611C149.214 84.5221 149.291 84.405 149.346 84.2571C149.404 84.1008 149.42 83.9525 149.42 83.8134H148.053C148.053 83.8289 148.052 83.83 148.053 83.8221C148.054 83.818 148.055 83.8122 148.057 83.8052C148.058 83.7982 148.061 83.7911 148.063 83.7844C148.068 83.7706 148.072 83.7637 148.071 83.7664C148.07 83.768 148.068 83.772 148.063 83.7789C148.058 83.7858 148.052 83.7949 148.043 83.8069L149.149 84.611ZM149.42 83.8134C149.42 83.6263 149.37 83.3364 149.189 83.072C148.982 82.7685 148.628 82.5429 148.149 82.5429V83.91C148.168 83.91 148.152 83.9132 148.12 83.896C148.09 83.8796 148.07 83.8577 148.06 83.8435C148.052 83.8318 148.052 83.827 148.053 83.8317C148.055 83.838 148.053 83.8349 148.053 83.8134H149.42ZM148.149 82.5429C147.791 82.5429 147.456 82.6773 147.213 82.9348C146.976 83.1871 146.866 83.5149 146.866 83.8389H148.233C148.233 83.8184 148.239 83.84 148.208 83.8722C148.194 83.8875 148.177 83.8987 148.161 83.9051C148.146 83.9115 148.14 83.91 148.149 83.91V82.5429ZM156.608 76.234V75.5503L156.597 75.5505L156.608 76.234ZM155.052 85.587L154.52 85.1575L153.621 86.2706H155.052V85.587ZM155.945 85.587V86.2706H156.269L156.474 86.02L155.945 85.587ZM163.601 76.234L164.13 76.667L165.044 75.5504H163.601V76.234ZM162.606 76.234V75.5504H162.279L162.074 75.8045L162.606 76.234ZM159.14 83.2137C159.14 84.0696 159.437 84.8398 159.993 85.398C160.55 85.9565 161.321 86.2578 162.184 86.2578V84.8907C161.644 84.8907 161.235 84.7072 160.962 84.4331C160.689 84.1587 160.507 83.7486 160.507 83.2137H159.14ZM162.184 86.2578C164.17 86.2578 165.178 84.5236 165.178 83.0988H163.81C163.81 84.0219 163.185 84.8907 162.184 84.8907V86.2578ZM165.178 83.0988C165.178 82.3451 164.935 81.5816 164.423 80.9966C163.901 80.3989 163.133 80.0292 162.184 80.0292V81.3963C162.754 81.3963 163.141 81.6071 163.394 81.8963C163.658 82.1981 163.81 82.6276 163.81 83.0988H165.178ZM162.184 80.0292C160.458 80.0292 159.14 81.5714 159.14 83.2137H160.507C160.507 82.2275 161.308 81.3963 162.184 81.3963V80.0292ZM156.608 81.7791C158.331 81.7791 159.64 80.202 159.64 78.5818H158.273C158.273 79.5647 157.463 80.412 156.608 80.412V81.7791ZM159.64 78.5818C159.64 77.7231 159.348 76.9542 158.792 76.3982C158.236 75.8422 157.467 75.5504 156.608 75.5504V76.9175C157.153 76.9175 157.558 77.0979 157.825 77.3649C158.092 77.6319 158.273 78.0369 158.273 78.5818H159.64ZM156.597 75.5505C154.647 75.5841 153.615 77.2538 153.615 78.7094H154.982C154.982 77.7916 155.609 76.9349 156.62 76.9174L156.597 75.5505ZM153.615 78.7094C153.615 79.4607 153.864 80.2229 154.374 80.807C154.896 81.4034 155.662 81.7791 156.608 81.7791V80.412C156.049 80.412 155.66 80.2007 155.403 79.907C155.136 79.6011 154.982 79.1704 154.982 78.7094H153.615ZM161.618 83.0095C161.618 82.7231 161.688 82.3357 161.831 82.0449C161.978 81.7469 162.104 81.7153 162.172 81.7153V80.3482C161.346 80.3482 160.853 80.9354 160.605 81.4413C160.352 81.9544 160.25 82.5559 160.25 83.0095H161.618ZM162.172 81.7153C162.22 81.7153 162.36 81.7334 162.515 82.1359C162.658 82.5078 162.713 82.9854 162.713 83.303H164.08C164.08 82.8805 164.014 82.2225 163.79 81.6437C163.579 81.0957 163.106 80.3482 162.172 80.3482V81.7153ZM162.713 83.303C162.713 83.5557 162.646 83.942 162.505 84.2418C162.354 84.5629 162.235 84.5717 162.21 84.5717V85.9388C163.04 85.9388 163.514 85.3097 163.742 84.8237C163.981 84.3164 164.08 83.7266 164.08 83.303H162.713ZM162.21 84.5717C162.191 84.5717 162.038 84.5534 161.855 84.129C161.691 83.7513 161.618 83.2835 161.618 83.0095H160.25C160.25 83.4502 160.355 84.1052 160.6 84.6717C160.825 85.1915 161.31 85.9388 162.21 85.9388V84.5717ZM155.052 86.2706H155.945V84.9035H155.052V86.2706ZM156.474 86.02L164.13 76.667L163.072 75.801L155.416 85.1541L156.474 86.02ZM163.601 75.5504H162.606V76.9175H163.601V75.5504ZM162.074 75.8045L154.52 85.1575L155.583 86.0165L163.137 76.6635L162.074 75.8045ZM156.621 77.2365C156.662 77.2365 156.804 77.2551 156.965 77.654C157.114 78.0195 157.175 78.4858 157.175 78.786H158.542C158.542 78.3588 158.463 77.7086 158.232 77.1395C158.015 76.6036 157.537 75.8694 156.621 75.8694V77.2365ZM157.175 78.786C157.175 79.098 157.114 79.489 156.981 79.7746C156.851 80.0537 156.732 80.093 156.634 80.093V81.4601C157.48 81.4601 157.974 80.8805 158.22 80.3525C158.463 79.8311 158.542 79.2268 158.542 78.786H157.175ZM156.634 80.093C156.605 80.093 156.459 80.0791 156.292 79.6559C156.141 79.2749 156.08 78.7932 156.08 78.4925H154.713C154.713 78.9191 154.791 79.5795 155.02 80.1586C155.233 80.6956 155.706 81.4601 156.634 81.4601V80.093ZM156.08 78.4925C156.08 78.2578 156.155 77.8791 156.308 77.5777C156.473 77.2508 156.602 77.2365 156.621 77.2365V75.8694C155.811 75.8694 155.327 76.4867 155.088 76.9605C154.835 77.4599 154.713 78.0509 154.713 78.4925H156.08Z" fill="#F8E4BE"/>
<path d="M249.529 57.2558C262.823 57.2558 273.6 46.479 273.6 33.185C273.6 19.8911 262.823 9.11426 249.529 9.11426C236.235 9.11426 225.459 19.8911 225.459 33.185C225.459 46.479 236.235 57.2558 249.529 57.2558Z" stroke="#4E3D33" stroke-width="6.36176" stroke-miterlimit="10"/>
<path opacity="0.8" d="M249.529 20.8807C251.963 20.8807 254.342 21.6024 256.365 22.9544C258.388 24.3064 259.965 26.228 260.897 28.4764C261.828 30.7247 262.072 33.1986 261.597 35.5854C261.122 37.9722 259.95 40.1646 258.23 41.8854C256.509 43.6062 254.316 44.7781 251.93 45.2528C249.543 45.7276 247.069 45.4839 244.82 44.5526C242.572 43.6213 240.651 42.0443 239.298 40.0209C237.946 37.9974 237.225 35.6185 237.225 33.185C237.225 29.9217 238.521 26.7921 240.829 24.4846C243.136 22.1771 246.266 20.8807 249.529 20.8807Z" stroke="white" stroke-width="6.36176" stroke-miterlimit="10"/>
<path d="M275.122 33.1849H288.329" stroke="#4E3D33" stroke-width="7.1547" stroke-miterlimit="10" stroke-linecap="round"/>
<path d="M241.302 78.3394L242.948 77.1782V83.4944C242.948 84.3238 242.718 84.8214 241.838 85.0511V85.3701H244.811V84.528C244.364 84.7194 243.867 84.847 243.292 84.9363C243.918 84.6428 243.93 84.2472 243.93 83.8517V76.234H243.611L241.123 78.0842L241.302 78.3394ZM249.348 85.5743C251.721 85.5743 252.602 82.9968 252.602 80.8786C252.602 78.7477 251.887 76.234 249.399 76.234C247.026 76.234 246.094 78.7987 246.094 80.9424C246.094 83.0861 246.745 85.5743 249.348 85.5743ZM247.842 77.9821C248.148 77.2165 248.684 76.553 249.412 76.553C250.93 76.553 251.287 79.1943 251.287 81.1466C251.287 82.078 251.185 83.0478 250.905 83.8134C250.624 84.579 250.05 85.2553 249.322 85.2553C247.574 85.2553 247.408 81.8356 247.408 80.6744C247.408 79.7174 247.536 78.7477 247.842 77.9821ZM257.273 85.5743C259.646 85.5743 260.527 82.9968 260.527 80.8786C260.527 78.7477 259.812 76.234 257.324 76.234C254.951 76.234 254.019 78.7987 254.019 80.9424C254.019 83.0861 254.67 85.5743 257.273 85.5743ZM255.767 77.9821C256.074 77.2165 256.61 76.553 257.337 76.553C258.855 76.553 259.213 79.1943 259.213 81.1466C259.213 82.078 259.11 83.0478 258.83 83.8134C258.549 84.579 257.975 85.2553 257.248 85.2553C255.499 85.2553 255.334 81.8356 255.334 80.6744C255.334 79.7174 255.461 78.7477 255.767 77.9821ZM267.214 83.2137C267.214 84.6045 268.171 85.5743 269.575 85.5743C271.068 85.5743 271.884 84.2728 271.884 83.0988C271.884 81.8739 271.093 80.7127 269.575 80.7127C268.273 80.7127 267.214 81.8994 267.214 83.2137ZM263.999 81.0955C265.287 81.0955 266.347 79.8833 266.347 78.5818C266.347 77.1782 265.402 76.234 263.999 76.234C262.519 76.2595 261.689 77.5227 261.689 78.7094C261.689 79.9216 262.493 81.0955 263.999 81.0955ZM268.324 83.0095C268.324 82.2694 268.669 81.0317 269.562 81.0317C270.545 81.0317 270.787 82.5629 270.787 83.303C270.787 83.9793 270.455 85.2553 269.6 85.2553C268.682 85.2553 268.324 83.7241 268.324 83.0095ZM262.442 85.587H263.335L270.991 76.234H269.996L262.442 85.587ZM264.011 76.553C264.968 76.553 265.249 78.0587 265.249 78.786C265.249 79.5388 264.968 80.7765 264.024 80.7765C263.067 80.7765 262.787 79.2198 262.787 78.4925C262.787 77.8162 263.182 76.553 264.011 76.553Z" fill="#F8E4BE"/>
<path d="M241.302 78.3394L240.742 78.7314L241.135 79.2934L241.696 78.8979L241.302 78.3394ZM242.948 77.1782H243.632V75.8595L242.554 76.6196L242.948 77.1782ZM241.838 85.0511L241.665 84.3897L241.154 84.523V85.0511H241.838ZM241.838 85.3701H241.154V86.0537H241.838V85.3701ZM244.811 85.3701V86.0537H245.494V85.3701H244.811ZM244.811 84.528H245.494V83.4913L244.542 83.8997L244.811 84.528ZM243.292 84.9363L243.002 84.3175L243.398 85.6117L243.292 84.9363ZM243.93 76.234H244.614V75.5504H243.93V76.234ZM243.611 76.234V75.5504H243.385L243.204 75.6854L243.611 76.234ZM241.123 78.0842L240.715 77.5356L240.182 77.932L240.563 78.4762L241.123 78.0842ZM241.696 78.8979L243.342 77.7368L242.554 76.6196L240.908 77.7808L241.696 78.8979ZM242.264 77.1782V83.4944H243.632V77.1782H242.264ZM242.264 83.4944C242.264 83.8634 242.209 84.0339 242.151 84.1242C242.106 84.1932 242.002 84.3018 241.665 84.3897L242.01 85.7126C242.554 85.5708 243.006 85.3157 243.296 84.8711C243.572 84.4478 243.632 83.9548 243.632 83.4944H242.264ZM241.154 85.0511V85.3701H242.521V85.0511H241.154ZM241.838 86.0537H244.811V84.6865H241.838V86.0537ZM245.494 85.3701V84.528H244.127V85.3701H245.494ZM244.542 83.8997C244.163 84.0619 243.725 84.1773 243.187 84.2608L243.398 85.6117C244.009 85.5166 244.566 85.3768 245.08 85.1563L244.542 83.8997ZM243.583 85.5551C244.009 85.3549 244.309 85.0764 244.472 84.7074C244.619 84.3731 244.614 84.036 244.614 83.8517H243.247C243.247 84.0629 243.236 84.1214 243.22 84.1571C243.22 84.1581 243.201 84.2242 243.002 84.3175L243.583 85.5551ZM244.614 83.8517V76.234H243.247V83.8517H244.614ZM243.93 75.5504H243.611V76.9175H243.93V75.5504ZM243.204 75.6854L240.715 77.5356L241.531 78.6327L244.019 76.7825L243.204 75.6854ZM240.563 78.4762L240.742 78.7314L241.862 77.9474L241.683 77.6922L240.563 78.4762ZM247.842 77.9821L247.208 77.7282L247.842 77.9821ZM250.905 83.8134L251.546 84.0487L250.905 83.8134ZM249.348 86.2578C250.837 86.2578 251.852 85.4273 252.459 84.3585C253.052 83.316 253.285 82.0153 253.285 80.8786H251.918C251.918 81.8601 251.711 82.9072 251.271 83.683C250.844 84.4325 250.232 84.8907 249.348 84.8907V86.2578ZM253.285 80.8786C253.285 79.7559 253.1 78.465 252.533 77.429C251.943 76.3515 250.932 75.5504 249.399 75.5504V76.9175C250.354 76.9175 250.944 77.3733 251.334 78.0854C251.746 78.839 251.918 79.8704 251.918 80.8786H253.285ZM249.399 75.5504C247.914 75.5504 246.887 76.3733 246.266 77.4403C245.659 78.4827 245.411 79.7881 245.411 80.9424H246.778C246.778 79.953 246.995 78.9042 247.447 78.1284C247.885 77.377 248.511 76.9175 249.399 76.9175V75.5504ZM245.411 80.9424C245.411 82.0628 245.577 83.3547 246.145 84.3909C246.741 85.4773 247.772 86.2578 249.348 86.2578V84.8907C248.321 84.8907 247.725 84.4272 247.344 83.7335C246.936 82.9898 246.778 81.9657 246.778 80.9424H245.411ZM248.477 78.236C248.607 77.9098 248.774 77.6416 248.951 77.4653C249.123 77.2946 249.274 77.2365 249.412 77.2365V75.8694C248.822 75.8694 248.342 76.1431 247.987 76.4956C247.638 76.8424 247.383 77.2888 247.208 77.7282L248.477 78.236ZM249.412 77.2365C249.564 77.2365 249.694 77.292 249.834 77.4501C249.991 77.6261 250.141 77.9141 250.266 78.3193C250.515 79.1274 250.604 80.1964 250.604 81.1466H251.971C251.971 80.1445 251.881 78.9166 251.572 77.9161C251.418 77.4169 251.194 76.9225 250.856 76.5423C250.503 76.1441 250.019 75.8694 249.412 75.8694V77.2365ZM250.604 81.1466C250.604 82.0426 250.504 82.9208 250.263 83.5781L251.546 84.0487C251.867 83.1748 251.971 82.1135 251.971 81.1466H250.604ZM250.263 83.5781C250.149 83.8877 249.984 84.1548 249.802 84.3338C249.622 84.5102 249.46 84.5717 249.322 84.5717V85.9388C249.912 85.9388 250.4 85.6622 250.76 85.3091C251.117 84.9586 251.379 84.5047 251.546 84.0487L250.263 83.5781ZM249.322 84.5717C249.147 84.5717 248.993 84.4999 248.827 84.2852C248.646 84.0512 248.491 83.6887 248.371 83.2283C248.134 82.3137 248.092 81.2381 248.092 80.6744H246.725C246.725 81.272 246.766 82.4868 247.048 83.5723C247.189 84.1119 247.402 84.6769 247.745 85.1204C248.102 85.5832 248.624 85.9388 249.322 85.9388V84.5717ZM248.092 80.6744C248.092 79.7655 248.215 78.8912 248.477 78.236L247.208 77.7282C246.857 78.6042 246.725 79.6694 246.725 80.6744H248.092ZM255.767 77.9821L255.133 77.7282L255.767 77.9821ZM258.83 83.8134L259.472 84.0487L258.83 83.8134ZM257.273 86.2578C258.762 86.2578 259.777 85.4273 260.384 84.3585C260.977 83.316 261.21 82.0153 261.21 80.8786H259.843C259.843 81.8601 259.637 82.9072 259.196 83.683C258.77 84.4325 258.157 84.8907 257.273 84.8907V86.2578ZM261.21 80.8786C261.21 79.7559 261.025 78.465 260.458 77.429C259.868 76.3515 258.857 75.5504 257.324 75.5504V76.9175C258.279 76.9175 258.869 77.3733 259.259 78.0854C259.671 78.839 259.843 79.8704 259.843 80.8786H261.21ZM257.324 75.5504C255.839 75.5504 254.812 76.3733 254.191 77.4403C253.584 78.4827 253.336 79.7881 253.336 80.9424H254.703C254.703 79.953 254.92 78.9042 255.372 78.1284C255.81 77.377 256.436 76.9175 257.324 76.9175V75.5504ZM253.336 80.9424C253.336 82.0628 253.502 83.3547 254.071 84.3909C254.666 85.4773 255.697 86.2578 257.273 86.2578V84.8907C256.246 84.8907 255.65 84.4272 255.269 83.7335C254.861 82.9898 254.703 81.9657 254.703 80.9424H253.336ZM256.402 78.236C256.533 77.9098 256.699 77.6416 256.876 77.4653C257.048 77.2946 257.2 77.2365 257.337 77.2365V75.8694C256.747 75.8694 256.267 76.1431 255.912 76.4956C255.563 76.8424 255.308 77.2888 255.133 77.7282L256.402 78.236ZM257.337 77.2365C257.489 77.2365 257.619 77.292 257.759 77.4501C257.916 77.6261 258.066 77.9141 258.191 78.3193C258.44 79.1274 258.529 80.1964 258.529 81.1466H259.896C259.896 80.1445 259.806 78.9166 259.497 77.9161C259.343 77.4169 259.119 76.9225 258.782 76.5423C258.428 76.1441 257.944 75.8694 257.337 75.8694V77.2365ZM258.529 81.1466C258.529 82.0426 258.429 82.9208 258.188 83.5781L259.472 84.0487C259.792 83.1748 259.896 82.1135 259.896 81.1466H258.529ZM258.188 83.5781C258.074 83.8877 257.909 84.1548 257.727 84.3338C257.547 84.5102 257.385 84.5717 257.248 84.5717V85.9388C257.837 85.9388 258.326 85.6622 258.685 85.3091C259.042 84.9586 259.304 84.5047 259.472 84.0487L258.188 83.5781ZM257.248 84.5717C257.072 84.5717 256.918 84.4999 256.752 84.2852C256.572 84.0512 256.416 83.6887 256.297 83.2283C256.059 82.3137 256.017 81.2381 256.017 80.6744H254.65C254.65 81.272 254.691 82.4868 254.973 83.5723C255.114 84.1119 255.328 84.6769 255.67 85.1204C256.027 85.5832 256.549 85.9388 257.248 85.9388V84.5717ZM256.017 80.6744C256.017 79.7655 256.14 78.8912 256.402 78.236L255.133 77.7282C254.782 78.6042 254.65 79.6694 254.65 80.6744H256.017ZM263.999 76.234V75.5503L263.987 75.5505L263.999 76.234ZM262.442 85.587L261.91 85.1575L261.011 86.2706H262.442V85.587ZM263.335 85.587V86.2706H263.659L263.864 86.02L263.335 85.587ZM270.991 76.234L271.52 76.667L272.434 75.5504H270.991V76.234ZM269.996 76.234V75.5504H269.669L269.464 75.8045L269.996 76.234ZM266.531 83.2137C266.531 84.0696 266.828 84.8398 267.384 85.398C267.94 85.9565 268.711 86.2578 269.575 86.2578V84.8907C269.035 84.8907 268.625 84.7072 268.352 84.4331C268.079 84.1587 267.898 83.7486 267.898 83.2137H266.531ZM269.575 86.2578C271.561 86.2578 272.568 84.5236 272.568 83.0988H271.201C271.201 84.0219 270.575 84.8907 269.575 84.8907V86.2578ZM272.568 83.0988C272.568 82.3451 272.325 81.5816 271.814 80.9966C271.291 80.3989 270.524 80.0292 269.575 80.0292V81.3963C270.145 81.3963 270.532 81.6071 270.784 81.8963C271.048 82.1981 271.201 82.6276 271.201 83.0988H272.568ZM269.575 80.0292C267.848 80.0292 266.531 81.5714 266.531 83.2137H267.898C267.898 82.2275 268.698 81.3963 269.575 81.3963V80.0292ZM263.999 81.7791C265.721 81.7791 267.03 80.202 267.03 78.5818H265.663C265.663 79.5647 264.854 80.412 263.999 80.412V81.7791ZM267.03 78.5818C267.03 77.7231 266.738 76.9542 266.182 76.3982C265.626 75.8422 264.857 75.5504 263.999 75.5504V76.9175C264.544 76.9175 264.949 77.0979 265.216 77.3649C265.483 77.6319 265.663 78.0369 265.663 78.5818H267.03ZM263.987 75.5505C262.038 75.5841 261.006 77.2538 261.006 78.7094H262.373C262.373 77.7916 262.999 76.9349 264.011 76.9174L263.987 75.5505ZM261.006 78.7094C261.006 79.4607 261.254 80.2229 261.765 80.807C262.286 81.4034 263.053 81.7791 263.999 81.7791V80.412C263.439 80.412 263.051 80.2007 262.794 79.907C262.526 79.6011 262.373 79.1704 262.373 78.7094H261.006ZM269.008 83.0095C269.008 82.7231 269.079 82.3357 269.222 82.0449C269.368 81.7469 269.495 81.7153 269.562 81.7153V80.3482C268.736 80.3482 268.244 80.9354 267.995 81.4413C267.742 81.9544 267.641 82.5559 267.641 83.0095H269.008ZM269.562 81.7153C269.61 81.7153 269.75 81.7334 269.905 82.1359C270.049 82.5078 270.103 82.9854 270.103 83.303H271.471C271.471 82.8805 271.404 82.2225 271.181 81.6437C270.969 81.0957 270.496 80.3482 269.562 80.3482V81.7153ZM270.103 83.303C270.103 83.5557 270.037 83.942 269.896 84.2418C269.745 84.5629 269.625 84.5717 269.6 84.5717V85.9388C270.431 85.9388 270.904 85.3097 271.133 84.8237C271.371 84.3164 271.471 83.7266 271.471 83.303H270.103ZM269.6 84.5717C269.581 84.5717 269.429 84.5534 269.245 84.129C269.082 83.7513 269.008 83.2835 269.008 83.0095H267.641C267.641 83.4502 267.745 84.1052 267.99 84.6717C268.215 85.1915 268.701 85.9388 269.6 85.9388V84.5717ZM262.442 86.2706H263.335V84.9035H262.442V86.2706ZM263.864 86.02L271.52 76.667L270.462 75.801L262.806 85.1541L263.864 86.02ZM270.991 75.5504H269.996V76.9175H270.991V75.5504ZM269.464 75.8045L261.91 85.1575L262.974 86.0165L270.528 76.6635L269.464 75.8045ZM264.011 77.2365C264.053 77.2365 264.194 77.2551 264.356 77.654C264.504 78.0195 264.566 78.4858 264.566 78.786H265.933C265.933 78.3588 265.854 77.7086 265.623 77.1395C265.405 76.6036 264.927 75.8694 264.011 75.8694V77.2365ZM264.566 78.786C264.566 79.098 264.505 79.489 264.371 79.7746C264.241 80.0537 264.123 80.093 264.024 80.093V81.4601C264.87 81.4601 265.364 80.8805 265.61 80.3525C265.854 79.8311 265.933 79.2268 265.933 78.786H264.566ZM264.024 80.093C263.995 80.093 263.85 80.0791 263.682 79.6559C263.532 79.2749 263.47 78.7932 263.47 78.4925H262.103C262.103 78.9191 262.182 79.5795 262.411 80.1586C262.623 80.6956 263.097 81.4601 264.024 81.4601V80.093ZM263.47 78.4925C263.47 78.2578 263.545 77.8791 263.698 77.5777C263.863 77.2508 263.992 77.2365 264.011 77.2365V75.8694C263.201 75.8694 262.718 76.4867 262.478 76.9605C262.225 77.4599 262.103 78.0509 262.103 78.4925H263.47Z" fill="#F8E4BE"/>
</g>
<defs>
<filter id="filter0_d_12_3295" x="0" y="0" width="306" height="111.484" filterUnits="userSpaceOnUse" color-interpolation-filters="sRGB">
<feFlood flood-opacity="0" result="BackgroundImageFix"/>
<feColorMatrix in="SourceAlpha" type="matrix" values="0 0 0 0 0 0 0 0 0 0 0 0 0 0 0 0 0 0 127 0" result="hardAlpha"/>
<feOffset dy="4"/>
<feGaussianBlur stdDeviation="2"/>
<feComposite in2="hardAlpha" operator="out"/>
<feColorMatrix type="matrix" values="0 0 0 0 0 0 0 0 0 0 0 0 0 0 0 0 0 0 0.25 0"/>
<feBlend mode="normal" in2="BackgroundImageFix" result="effect1_dropShadow_12_3295"/>
<feBlend mode="normal" in="SourceGraphic" in2="effect1_dropShadow_12_3295" result="shape"/>
</filter>
<clipPath id="clip0_12_3295">
<rect width="298" height="103.484" fill="white" transform="translate(4)"/>
</clipPath>
</defs>
</svg>
